<?xml version="1.0" encoding="UTF-8"?><svg id="PRINT" xmlns="http://www.w3.org/2000/svg" viewBox="0 0 346.16 132"><path d="M157.67,106.32v-17.79h2.35v15.69h8.76v2.1h-11.11Z"/><path d="M175.97,106.32v-17.79h2.35v17.79h-2.35Z"/><path d="M186.35,106.32v-17.79h6.67c1.36,0,2.45.18,3.27.54s1.46.91,1.93,1.66.7,1.53.7,2.35c0,.76-.21,1.48-.62,2.15s-1.04,1.21-1.87,1.63c1.08.32,1.9.85,2.48,1.61s.87,1.66.87,2.69c0,.83-.18,1.61-.53,2.32s-.79,1.27-1.31,1.66-1.17.68-1.95.88-1.74.3-2.87.3h-6.78ZM188.7,96.01h3.85c1.04,0,1.79-.07,2.24-.21.6-.18,1.05-.47,1.35-.89s.45-.93.45-1.55c0-.59-.14-1.11-.42-1.56s-.69-.76-1.21-.92-1.43-.25-2.71-.25h-3.56v5.38ZM188.7,104.22h4.43c.76,0,1.29-.03,1.6-.08.54-.1.99-.26,1.36-.49s.66-.56.9-.99.35-.93.35-1.5c0-.66-.17-1.24-.51-1.73s-.81-.83-1.41-1.03-1.47-.3-2.6-.3h-4.11v6.12Z"/><path d="M207.03,106.32v-17.79h7.89c1.59,0,2.79.16,3.62.48s1.48.88,1.98,1.69.74,1.7.74,2.68c0,1.26-.41,2.33-1.23,3.19s-2.08,1.42-3.79,1.65c.62.3,1.1.59,1.42.89.69.63,1.34,1.42,1.95,2.37l3.09,4.84h-2.96l-2.35-3.7c-.69-1.07-1.25-1.88-1.7-2.45s-.84-.96-1.19-1.19-.71-.38-1.07-.47c-.27-.06-.7-.08-1.31-.08h-2.73v7.9h-2.35ZM209.39,96.38h5.06c1.08,0,1.92-.11,2.52-.33s1.07-.58,1.38-1.07.47-1.02.47-1.6c0-.84-.3-1.53-.92-2.07s-1.58-.81-2.89-.81h-5.63v5.88Z"/><path d="M226.97,106.32l6.83-17.79h2.54l7.28,17.79h-2.68l-2.07-5.39h-7.44l-1.95,5.39h-2.5ZM232.1,99.02h6.03l-1.86-4.93c-.57-1.5-.99-2.73-1.26-3.69-.23,1.14-.55,2.27-.96,3.4l-1.95,5.22Z"/><path d="M249.51,106.32v-17.79h7.89c1.59,0,2.79.16,3.62.48s1.48.88,1.98,1.69.74,1.7.74,2.68c0,1.26-.41,2.33-1.23,3.19s-2.08,1.42-3.79,1.65c.62.3,1.1.59,1.42.89.69.63,1.34,1.42,1.95,2.37l3.09,4.84h-2.96l-2.35-3.7c-.69-1.07-1.25-1.88-1.7-2.45s-.84-.96-1.2-1.19-.71-.38-1.07-.47c-.27-.06-.7-.08-1.31-.08h-2.73v7.9h-2.35ZM251.86,96.38h5.06c1.08,0,1.92-.11,2.52-.33s1.07-.58,1.38-1.07.47-1.02.47-1.6c0-.84-.31-1.53-.92-2.07s-1.58-.81-2.89-.81h-5.63v5.88Z"/><path d="M275.96,106.32v-7.54l-6.86-10.25h2.86l3.51,5.36c.65,1,1.25,2.01,1.81,3.01.53-.93,1.18-1.98,1.94-3.14l3.45-5.23h2.74l-7.1,10.25v7.54h-2.35Z"/><path d="M89.53,90.37h-24.97c-.83,0-1.5-.67-1.5-1.5v-7.26c0-1.66-1.35-3-3-3h-17.53c-1.66,0-3,1.34-3,3v7.26c0,.83-.67,1.5-1.5,1.5h-8.77c-.83,0-1.5-.67-1.5-1.5v-14.65c0-.83.67-1.5,1.5-1.5h60.27c11.7.47,11.69,17.18,0,17.65Z"/><path d="M89.53,43.31H27.76v-17.64h61.77c11.7.48,11.7,17.16,0,17.64Z"/><path d="M104.23,50.7v14.64c0,.83-.67,1.51-1.5,1.51h-60c-4.59,0-8.61-3.4-9.04-7.97-.5-5.25,3.63-9.69,8.77-9.69h60.27c.83,0,1.5.68,1.5,1.51Z"/><path d="M124,0H8C3.58,0,0,3.58,0,8v116c0,4.41,3.58,8,8,8h116c4.41,0,8-3.59,8-8V8c0-4.42-3.59-8-8-8ZM111.61,66.85h1.44c.81,0,1.55.33,2.09.86.53.53.86,1.27.86,2.08,0,1.62-1.32,2.94-2.95,2.94h-11.76c7.26,9.55.26,23.59-11.76,23.53h-24.97c-.83,0-1.5.67-1.5,1.5v12.95c0,1.19-1.34,1.91-2.34,1.25l-8.6-5.74c-.5-.33-1.16-.33-1.66,0l-8.6,5.73c-.99.67-2.33-.05-2.33-1.24v-12.95c0-.83-.67-1.5-1.5-1.5h-19.1c-1.62,0-2.93-1.32-2.93-2.94h0c0-1.63,1.31-2.95,2.93-2.95h1.45c.83,0,1.5-.67,1.5-1.5v-14.65c0-.83-.67-1.5-1.5-1.5h-1.45c-.81,0-1.54-.33-2.07-.86-.53-.53-.86-1.26-.86-2.08,0-1.62,1.31-2.93,2.93-2.93h11.78c-3.93-5.23-3.94-12.42,0-17.66h-11.77c-.82,0-1.55-.33-2.08-.86s-.86-1.27-.86-2.08c0-1.62,1.31-2.94,2.94-2.94h1.44c.83,0,1.5-.67,1.5-1.5v-14.64c0-.83-.67-1.5-1.5-1.5h-1.44c-.82,0-1.55-.33-2.08-.86-.53-.53-.86-1.27-.86-2.08,0-1.63,1.31-2.95,2.94-2.95h70.59c12.05-.06,19.01,14.05,11.75,23.54h11.78c1.62,0,2.94,1.31,2.94,2.94s-1.32,2.93-2.94,2.93h-1.45c-.83,0-1.5.68-1.5,1.51v14.64c0,.83.67,1.51,1.5,1.51Z"/><path d="M157.67,25.67c.97.04,2.28.08,3.93.12,1.65.04,3.29.06,4.91.06,1.86,0,3.66-.02,5.41-.06,1.74-.04,2.98-.06,3.72-.06,3.61,0,6.6.4,8.99,1.19,2.38.8,4.17,1.95,5.35,3.46,1.18,1.51,1.77,3.33,1.77,5.47,0,1.32-.27,2.65-.81,3.98-.54,1.34-1.46,2.58-2.76,3.72-1.3,1.14-3.07,2.06-5.32,2.73-2.25.68-5.08,1.02-8.49,1.02h-5.58v-1.16h5c2.29,0,4.02-.44,5.21-1.31,1.18-.87,2-2.04,2.44-3.49.44-1.45.67-3.07.67-4.86,0-3.06-.54-5.44-1.63-7.12-1.09-1.69-2.95-2.53-5.58-2.53-1.51,0-2.49.33-2.94.99-.45.66-.67,2-.67,4.01v28.85c0,1.4.11,2.44.32,3.14.21.7.63,1.16,1.25,1.4.62.23,1.55.39,2.79.46v1.16c-1.05-.08-2.37-.13-3.96-.15-1.59-.02-3.2-.03-4.83-.03-1.86,0-3.62,0-5.26.03s-2.96.07-3.93.15v-1.16c1.24-.08,2.17-.23,2.79-.46.62-.23,1.04-.7,1.25-1.4.21-.7.32-1.74.32-3.14v-28.85c0-1.43-.11-2.49-.32-3.17-.21-.68-.64-1.14-1.28-1.4-.64-.25-1.56-.4-2.76-.44v-1.16ZM168.66,46.32c1.67.04,3.11.12,4.33.23,1.22.12,2.3.22,3.23.32.93.1,1.76.17,2.5.2,3.53.31,6.14,1.07,7.82,2.27,1.69,1.2,2.78,3.01,3.29,5.41l1.34,5.99c.35,1.55.72,2.64,1.11,3.26.39.62.95.93,1.69.93.5-.04.92-.16,1.25-.38.33-.21.69-.53,1.08-.96l.81.7c-1.05,1.2-2.17,2.06-3.37,2.59-1.2.52-2.66.78-4.36.78-2.09,0-3.82-.45-5.18-1.34-1.36-.89-2.25-2.54-2.68-4.94l-1.05-5.82c-.27-1.63-.6-3.05-.99-4.27-.39-1.22-.92-2.19-1.6-2.91-.68-.72-1.62-1.08-2.82-1.08h-6.28l-.12-.99Z"/><path d="M212.34,35.97c3.41,0,6.09,1.01,8.03,3.02,1.94,2.02,2.91,5.31,2.91,9.89h-19.13l-.12-1.11h11.92c.04-1.9-.08-3.65-.35-5.26-.27-1.61-.7-2.9-1.28-3.87-.58-.97-1.36-1.45-2.33-1.45-1.36,0-2.51.85-3.46,2.56-.95,1.71-1.52,4.54-1.72,8.49l.17.35c-.04.47-.07.95-.09,1.45-.02.5-.03,1.03-.03,1.57,0,2.68.38,4.85,1.13,6.51.76,1.67,1.72,2.88,2.88,3.63,1.16.76,2.35,1.13,3.55,1.13.81,0,1.66-.12,2.53-.38.87-.25,1.75-.72,2.65-1.4.89-.68,1.73-1.64,2.5-2.88l1.05.35c-.47,1.47-1.2,2.91-2.21,4.3-1.01,1.4-2.29,2.54-3.84,3.43-1.55.89-3.41,1.34-5.58,1.34-2.64,0-4.96-.56-6.98-1.69-2.02-1.12-3.6-2.83-4.74-5.12-1.14-2.29-1.72-5.2-1.72-8.72s.61-6.61,1.83-9.01c1.22-2.4,2.91-4.2,5.06-5.38,2.15-1.18,4.6-1.77,7.36-1.77Z"/><path d="M234.67,67.26c-1.74,0-3.2-.33-4.36-.99-1.16-.66-2.02-1.54-2.56-2.65-.54-1.11-.81-2.32-.81-3.63,0-1.67.38-3.02,1.13-4.07.76-1.05,1.73-1.9,2.94-2.56,1.2-.66,2.47-1.2,3.81-1.63,1.34-.43,2.62-.84,3.84-1.25,1.22-.41,2.21-.89,2.97-1.45.76-.56,1.13-1.29,1.13-2.18v-4.54c0-1.01-.17-1.91-.49-2.7-.33-.79-.83-1.4-1.51-1.83-.68-.43-1.56-.64-2.65-.64-.78,0-1.55.11-2.33.32-.78.21-1.42.57-1.92,1.08,1.08.39,1.93.98,2.53,1.77.6.8.9,1.7.9,2.7,0,1.32-.46,2.36-1.37,3.14-.91.78-1.99,1.16-3.23,1.16-1.4,0-2.45-.44-3.17-1.31-.72-.87-1.08-1.93-1.08-3.17,0-1.12.28-2.05.84-2.79.56-.74,1.35-1.43,2.36-2.09,1.09-.62,2.39-1.11,3.93-1.45,1.53-.35,3.19-.52,4.97-.52s3.39.18,4.83.55c1.43.37,2.64,1.04,3.61,2.01.89.89,1.47,1.99,1.74,3.29.27,1.3.41,2.94.41,4.91v15.82c0,.97.1,1.64.29,2.01.19.37.52.55.99.55.35,0,.69-.1,1.02-.29.33-.19.69-.43,1.08-.7l.58.99c-.81.7-1.75,1.23-2.82,1.6-1.07.37-2.26.55-3.58.55-1.43,0-2.58-.2-3.43-.61s-1.46-.96-1.83-1.66c-.37-.7-.55-1.51-.55-2.44-.93,1.47-2.06,2.63-3.37,3.46-1.32.83-2.93,1.25-4.83,1.25ZM238.8,63.53c.77,0,1.48-.18,2.12-.55.64-.37,1.25-.98,1.83-1.83v-11.92c-.35.58-.83,1.11-1.45,1.57-.62.47-1.28.94-1.98,1.42-.7.49-1.37,1.02-2.01,1.6s-1.15,1.3-1.54,2.15c-.39.85-.58,1.88-.58,3.08,0,1.51.33,2.64.99,3.37.66.74,1.53,1.11,2.62,1.11Z"/><path d="M270.55,35.97c1.71,0,3.21.28,4.51.84,1.3.56,2.32,1.5,3.05,2.82l-.7.64c-.5-.93-1.17-1.6-2.01-2.01s-1.72-.61-2.65-.61c-1.98,0-3.55,1.15-4.71,3.46-1.16,2.31-1.73,5.86-1.69,10.67,0,3.3.22,5.92.67,7.88s1.09,3.36,1.92,4.22c.83.85,1.79,1.28,2.88,1.28,1.32,0,2.5-.52,3.55-1.57,1.05-1.05,1.61-2.46,1.69-4.25l.29,2.04c-.58,2.05-1.52,3.62-2.82,4.68-1.3,1.07-3,1.6-5.09,1.6-2.29,0-4.33-.56-6.14-1.69-1.8-1.12-3.21-2.86-4.22-5.21-1.01-2.35-1.51-5.38-1.51-9.1,0-3.53.56-6.45,1.69-8.75,1.12-2.31,2.67-4.04,4.62-5.21,1.96-1.16,4.18-1.74,6.66-1.74ZM285.38,21.31v39.14c0,1.74.27,3.03.81,3.87.54.83,1.51,1.25,2.91,1.25v1.22c-1.2-.12-2.4-.17-3.61-.17-1.63,0-3.15.06-4.57.17-1.42.12-2.72.33-3.93.64V28.29c0-1.74-.26-3.03-.79-3.87-.52-.83-1.5-1.25-2.94-1.25v-1.22c1.24.12,2.44.17,3.61.17,1.59,0,3.1-.07,4.54-.2,1.43-.14,2.75-.34,3.96-.61Z"/><path d="M306.55,35.97c3.41,0,6.09,1.01,8.03,3.02,1.94,2.02,2.91,5.31,2.91,9.89h-19.13l-.12-1.11h11.92c.04-1.9-.08-3.65-.35-5.26-.27-1.61-.7-2.9-1.28-3.87-.58-.97-1.36-1.45-2.33-1.45-1.36,0-2.51.85-3.46,2.56-.95,1.71-1.52,4.54-1.72,8.49l.17.35c-.04.47-.07.95-.09,1.45-.02.5-.03,1.03-.03,1.57,0,2.68.38,4.85,1.13,6.51.76,1.67,1.72,2.88,2.88,3.63,1.16.76,2.35,1.13,3.55,1.13.81,0,1.66-.12,2.53-.38.87-.25,1.75-.72,2.65-1.4.89-.68,1.73-1.64,2.5-2.88l1.05.35c-.47,1.47-1.2,2.91-2.21,4.3-1.01,1.4-2.29,2.54-3.84,3.43-1.55.89-3.41,1.34-5.58,1.34-2.64,0-4.96-.56-6.98-1.69-2.02-1.12-3.6-2.83-4.74-5.12-1.14-2.29-1.72-5.2-1.72-8.72s.61-6.61,1.83-9.01c1.22-2.4,2.91-4.2,5.06-5.38,2.15-1.18,4.6-1.77,7.36-1.77Z"/><path d="M340.87,35.97c1.24,0,2.25.26,3.02.79.77.52,1.35,1.19,1.72,2.01.37.81.55,1.67.55,2.56,0,1.43-.42,2.61-1.25,3.52-.83.91-1.93,1.37-3.29,1.37s-2.41-.34-3.17-1.02c-.76-.68-1.13-1.58-1.13-2.7s.24-1.99.73-2.7c.48-.72,1.09-1.33,1.83-1.83-.54-.15-1.09-.13-1.63.06-.74.12-1.43.42-2.09.9-.66.49-1.22,1.09-1.69,1.8-.47.72-.83,1.49-1.11,2.33-.27.83-.41,1.64-.41,2.41v15.41c0,1.86.46,3.12,1.37,3.78.91.66,2.28.99,4.1.99v1.22c-.89-.04-2.19-.09-3.9-.15-1.71-.06-3.49-.09-5.35-.09-1.55,0-3.12.03-4.71.09-1.59.06-2.79.11-3.61.15v-1.22c1.36,0,2.32-.29,2.88-.87.56-.58.84-1.69.84-3.32v-18.32c0-1.74-.26-3.03-.78-3.87-.52-.83-1.5-1.25-2.94-1.25v-1.22c1.24.12,2.44.17,3.61.17,1.63,0,3.15-.07,4.56-.2,1.42-.14,2.72-.34,3.93-.61v5.41c.47-1.05,1.08-2,1.86-2.85.78-.85,1.67-1.52,2.68-2.01,1.01-.48,2.13-.73,3.37-.73Z"/></svg>