<?xml version="1.0" encoding="UTF-8"?><svg id="PRINT" xmlns="http://www.w3.org/2000/svg" viewBox="0 0 132 132"><defs><style>.cls-1{fill:#ffe01a;}</style></defs><rect class="cls-1" width="132" height="132" rx="8" ry="8"/><path d="M116,46.26h0c0-1.62-1.32-2.94-2.94-2.94h-11.78c7.26-9.49.3-23.59-11.75-23.53H18.94c-1.62,0-2.94,1.32-2.94,2.94h0c0,1.62,1.32,2.94,2.94,2.94h1.44c.83,0,1.5.67,1.5,1.5v14.64c0,.83-.67,1.5-1.5,1.5h-1.44c-1.62,0-2.94,1.32-2.94,2.94h0c0,1.62,1.32,2.94,2.94,2.94h11.77c-3.94,5.23-3.93,12.42,0,17.65h-11.78c-1.62,0-2.94,1.32-2.94,2.94h0c0,1.62,1.32,2.94,2.94,2.94h1.44c.83,0,1.5.67,1.5,1.5v14.65c0,.83-.67,1.5-1.5,1.5h-1.44c-1.62,0-2.94,1.32-2.94,2.94h0c0,1.63,1.32,2.95,2.94,2.95h19.1c.83,0,1.5.67,1.5,1.5v12.95c0,1.2,1.34,1.91,2.33,1.25l8.59-5.73c.5-.34,1.16-.34,1.67,0l8.6,5.73c1,.66,2.33-.05,2.33-1.25v-12.95c0-.83.67-1.5,1.5-1.5h24.97c12.02.06,19.02-13.98,11.76-23.53h11.77c1.62,0,2.94-1.32,2.94-2.94h0c0-1.62-1.32-2.94-2.94-2.94h-1.44c-.83,0-1.5-.67-1.5-1.5v-14.65c0-.83.67-1.5,1.5-1.5h1.44c1.62,0,2.94-1.32,2.94-2.94ZM27.77,43.31v-17.64h61.76c11.7.48,11.71,17.16,0,17.64H27.77ZM89.53,90.38h-24.97c-.83,0-1.5-.67-1.5-1.5v-7.26c0-1.66-1.34-3-3-3h-17.52c-1.66,0-3,1.34-3,3v7.26c0,.83-.67,1.5-1.5,1.5h-8.77c-.83,0-1.5-.67-1.5-1.5v-14.65c0-.83.67-1.5,1.5-1.5h60.26c11.71.47,11.69,17.18,0,17.65ZM102.73,66.85h-60c-4.59,0-8.61-3.4-9.04-7.97-.5-5.25,3.63-9.69,8.78-9.69h60.26c.83,0,1.5.67,1.5,1.5v14.65c0,.83-.67,1.5-1.5,1.5Z"/></svg>