<?xml version="1.0" encoding="utf-8"?>
<!-- Generator: Adobe Illustrator 27.5.0, SVG Export Plug-In . SVG Version: 6.00 Build 0)  -->
<svg version="1.1" id="PRINT" xmlns="http://www.w3.org/2000/svg" xmlns:xlink="http://www.w3.org/1999/xlink" x="0px" y="0px"
	 viewBox="0 0 500 500" style="enable-background:new 0 0 500 500;" xml:space="preserve">
<g>
	
		<rect id="CUSTOM-Background_00000155145427791065155850000017790679992115529097_" style="fill:#A64F3C;" width="500" height="500"/>
	<text transform="matrix(1 0 0 1 241.0107 220.4726)"><tspan x="0" y="0" style="fill:#FFFFFF; font-family:'BioRhyme-Regular'; font-size:59.5163px;">Read</tspan><tspan x="0" y="55.162" style="fill:#FFFFFF; font-family:'BioRhyme-Regular'; font-size:59.5163px;">leader</tspan></text>
	
		<text transform="matrix(1 0 0 1 239.3711 322.1063)" style="fill:#FFFFFF; font-family:'JosefinSans-Regular'; font-size:31.904px; letter-spacing:7;">LIBRARY</text>
	
		<rect id="CUSTOM_00000093179070809485173190000001133416838029192092_" x="65.68" y="179.686" style="fill:#FFFFFF;" width="160.06" height="142.506"/>
	<path id="CUSTOM" style="fill:#A64F3C;" d="M89.671,197.539v23.514h-7.838v7.838h19.605c-5.245,6.97-5.239,16.551,0,23.514H81.834
		v7.838h7.838v23.514h-7.838v7.838h31.351v22.998l15.676-10.45l15.676,10.45v-22.998h35.27c16.019,0.08,25.353-18.63,15.677-31.351
		h19.593v-7.838h-7.838v-23.514h7.838v-7.838h-19.605c9.672-12.65,0.398-31.434-15.665-31.351H81.834v7.838H89.671z M97.509,260.242
		h82.298c15.599,0.616,15.584,22.887,0,23.514h-35.27V268.08h-31.352v15.676H97.509V260.242z M117.104,228.891h82.298v23.514
		c-10.508,0-74.57,0-82.298,0c-6.483,0-11.757-5.274-11.757-11.757C105.347,234.165,110.621,228.891,117.104,228.891z
		 M97.509,197.539h82.298c15.589,0.642,15.601,22.866,0,23.514c-7.715,0-71.811,0-82.298,0V197.539z"/>
</g>
</svg>
