<?xml version="1.0" encoding="UTF-8"?><svg id="PRINT" xmlns="http://www.w3.org/2000/svg" viewBox="0 0 132 132"><defs><style>.cls-1{fill:#fff;}</style></defs><path class="cls-1" d="M89.53,90.38h-24.97c-.83,0-1.5-.67-1.5-1.5v-7.26c0-1.66-1.35-3.01-3-3.01h-17.53c-1.66,0-3,1.35-3,3.01v7.26c0,.83-.67,1.5-1.5,1.5h-8.77c-.83,0-1.5-.67-1.5-1.5v-14.65c0-.83.67-1.5,1.5-1.5h60.27c11.7.47,11.69,17.18,0,17.65Z"/><path class="cls-1" d="M89.53,43.32H27.76v-17.64h61.77c11.7.48,11.7,17.16,0,17.64Z"/><path class="cls-1" d="M104.23,50.7v14.65c0,.83-.67,1.5-1.5,1.5h-60c-4.59,0-8.61-3.39-9.04-7.96-.5-5.25,3.63-9.69,8.77-9.69h60.27c.83,0,1.5.67,1.5,1.5Z"/><path class="cls-1" d="M124,0H8C3.58,0,0,3.59,0,8v116c0,4.42,3.58,8,8,8h116c4.41,0,8-3.58,8-8V8c0-4.41-3.59-8-8-8ZM111.61,66.85h1.44c.82,0,1.55.33,2.09.86.53.54.86,1.27.86,2.09,0,1.62-1.32,2.94-2.95,2.94h-11.76c7.26,9.54.26,23.58-11.76,23.52h-24.97c-.83,0-1.5.68-1.5,1.51v12.94c0,1.2-1.34,1.92-2.34,1.25l-8.6-5.73c-.5-.34-1.16-.34-1.66,0l-8.6,5.73c-.99.67-2.33-.05-2.33-1.25v-12.94c0-.83-.67-1.51-1.5-1.51h-19.1c-1.62,0-2.93-1.31-2.93-2.93h0c0-1.63,1.31-2.95,2.93-2.95h1.45c.83,0,1.5-.67,1.5-1.5v-14.65c0-.83-.67-1.5-1.5-1.5h-1.45c-.81,0-1.54-.33-2.07-.86-.53-.53-.86-1.27-.86-2.08,0-1.62,1.31-2.94,2.93-2.94h11.78c-3.93-5.23-3.94-12.42,0-17.65h-11.77c-.81,0-1.55-.33-2.08-.86s-.86-1.26-.86-2.08c0-1.62,1.31-2.94,2.94-2.94h1.44c.83,0,1.5-.67,1.5-1.5v-14.64c0-.83-.67-1.5-1.5-1.5h-1.44c-.81,0-1.55-.33-2.08-.86-.53-.54-.86-1.28-.86-2.09,0-1.62,1.31-2.94,2.94-2.94h70.59c12.05-.06,19.01,14.04,11.75,23.54h11.78c1.62,0,2.94,1.31,2.94,2.93s-1.32,2.94-2.94,2.94h-1.45c-.83,0-1.5.67-1.5,1.5v14.65c0,.83.67,1.5,1.5,1.5Z"/></svg>