<?xml version="1.0" encoding="UTF-8"?><svg id="PRINT" xmlns="http://www.w3.org/2000/svg" viewBox="0 0 612.28 437.95"><defs><style>.cls-1{fill:#8f93ab;}.cls-2{fill:#53546c;}.cls-3{fill:#e8eadd;}.cls-4{fill:none;stroke:#e8eadd;stroke-miterlimit:10;stroke-width:2px;}.cls-5{fill:#d8bcb8;}</style></defs><rect class="cls-5" x="87.17" y="-87.16" width="437.95" height="612.28" transform="translate(525.12 -87.17) rotate(90)"/><path class="cls-2" d="M260.89,437.95H0V0h501.22v10.22c0,22.34-88.64,30.03-105.25,31.54-19.18,1.75-33.47,21.41-51.75,27.56-17.43,5.87-40.92-4-56.67,5.37-46.4,27.61-86.93,65.78-121.15,107.33-40.32,48.95-78.36,102.49-35.93,163.74,30.47,43.98,82.11-10.17,122.5,18.69,23.62,16.88,5.91,66.34,7.92,73.5Z"/><path class="cls-3" d="M194.5,437.95H0V0h434.83v10.22c0,12.13-23.81,15.76-31.25,17.01-16.86,2.83-32.8,9.52-49.6,12.65-28.49,5.31-59.09.17-86.55,10.85-29.59,11.5-57.2,29.69-82.11,49.13-31.18,24.32-71.56,13.3-96.72,43.85-21.84,26.51-40.72,99.78-44.15,135.22-3.47,35.92,16.65,70.07,43.85,92.1,28.63,23.19,69.27,24.43,96.45,48.79,5,4.48,7.74,10.99,9.75,18.15Z"/><path class="cls-1" d="M553.58,0h58.7v429.7c0,.42-6.21-10-6.72-11.23-4.27-10.17-7.38-21.13-10.84-31.72-5.62-17.2-8.66-37.88-21.19-50.29-14.29-14.16-30.95-8.71-46.62-1.96-20.38,8.79-62.12,18.05-79.31-2.61-37.26-44.81,14.25-67.14,29.58-101.16,3.39-7.51,5.79-15.58,8.49-23.46,7.87-22.97,22.18-39.58,34.17-59.29,12.43-20.44,20.99-44.21,25.11-69.03,4.43-26.65,1.75-52.65,8.62-78.95Z"/><path class="cls-4" d="M324.45,259.72c3.71,12.16,3.11,25.17,4.76,37.78,1.64,12.61,6.34,25.95,17.14,32.67,5.54,3.44,12.15,4.78,18.66,5.14,12.46.69,26.49-2.99,32.77-13.77,4.48-7.68,4-17.46.85-25.78-3.14-8.32-8.65-15.49-14.09-22.52-10.57-13.68-21.13-27.36-31.7-41.04-5.51-7.13-11.17-14.41-18.79-19.21s-17.7-6.73-25.67-2.51c-8.11,4.29-12.87,17.09-5.28,23.86,4.01,3.57,8.88,5.77,12.56,9.78,4.06,4.43,7.02,9.89,8.77,15.62Z"/></svg>